<svg width="32" height="33" viewBox="0 0 32 33" fill="none" xmlns="http://www.w3.org/2000/svg">
<g id="Move Left">
<mask id="mask0_139_789" style="mask-type:alpha" maskUnits="userSpaceOnUse" x="0" y="0" width="32" height="33">
<rect id="Bounding box" y="32.5" width="32" height="32" transform="rotate(-90 0 32.5)" fill="#D9D9D9"/>
</mask>
<g mask="url(#mask0_139_789)">
<path id="expand_less" d="M19.5666 23.5667C19.3222 23.8111 19.0111 23.9333 18.6333 23.9333C18.2555 23.9333 17.9444 23.8111 17.7 23.5667L11.5666 17.4334C11.4333 17.3 11.3388 17.1556 11.2833 17C11.2277 16.8445 11.2 16.6778 11.2 16.5C11.2 16.3222 11.2277 16.1556 11.2833 16C11.3388 15.8445 11.4333 15.7 11.5666 15.5667L17.7333 9.40002C17.9777 9.15557 18.2777 9.03335 18.6333 9.03335C18.9888 9.03335 19.2999 9.16668 19.5666 9.43335C19.8111 9.67779 19.9333 9.98891 19.9333 10.3667C19.9333 10.7445 19.8111 11.0556 19.5666 11.3L14.3666 16.5L19.6 21.7333C19.8444 21.9778 19.9666 22.2778 19.9666 22.6333C19.9666 22.9889 19.8333 23.3 19.5666 23.5667Z" fill="#0B0B0B"/>
</g>
</g>
</svg>
