<svg width="32" height="33" viewBox="0 0 32 33" fill="none" xmlns="http://www.w3.org/2000/svg">
<g id="Move Left">
<mask id="mask0_139_836" style="mask-type:alpha" maskUnits="userSpaceOnUse" x="0" y="0" width="32" height="33">
<rect id="Bounding box" x="32" y="0.5" width="32" height="32" transform="rotate(90 32 0.5)" fill="#D9D9D9"/>
</mask>
<g mask="url(#mask0_139_836)">
<path id="expand_less" d="M12.4331 9.43332C12.6776 9.18887 12.9887 9.06665 13.3665 9.06665C13.7442 9.06665 14.0554 9.18887 14.2998 9.43332L20.4331 15.5666C20.5665 15.7 20.6609 15.8444 20.7165 16C20.772 16.1555 20.7998 16.3222 20.7998 16.5C20.7998 16.6778 20.772 16.8444 20.7165 17C20.6609 17.1555 20.5665 17.3 20.4331 17.4333L14.2665 23.6C14.022 23.8444 13.722 23.9667 13.3665 23.9667C13.0109 23.9667 12.6998 23.8333 12.4331 23.5666C12.1887 23.3222 12.0665 23.0111 12.0665 22.6333C12.0665 22.2555 12.1887 21.9444 12.4331 21.7L17.6331 16.5L12.3998 11.2667C12.1554 11.0222 12.0331 10.7222 12.0331 10.3667C12.0331 10.0111 12.1665 9.69998 12.4331 9.43332Z" fill="#0B0B0B"/>
</g>
</g>
</svg>
