<svg xmlns="http://www.w3.org/2000/svg" width="97" height="29" viewBox="0 0 97 29" fill="none">
  <g clip-path="url(#clip0_113_949)">
    <path d="M13.6148 15.1402C13.6148 15.8231 13.5386 16.5273 13.3863 17.2528C13.2339 17.9784 12.9728 18.6399 12.6027 19.2374C12.2544 19.8348 11.7864 20.3256 11.1988 20.7098C10.6329 21.0938 9.93632 21.2859 9.1092 21.2859C8.69563 21.2859 8.29296 21.2326 7.90117 21.1259C7.53114 21.0405 7.16111 20.9125 6.79109 20.7418C6.79109 21.6807 6.76932 22.5983 6.72579 23.4945C6.68226 24.4121 6.66049 25.3403 6.66049 26.2793C6.66049 26.9195 6.58431 27.4209 6.43195 27.7837C6.30135 28.1678 6.08368 28.4452 5.77896 28.6159C5.49599 28.7867 5.12596 28.8934 4.66887 28.936C4.23355 28.9787 3.72204 29 3.13435 29C2.91669 29 2.66637 28.9894 2.38342 28.968C2.12221 28.968 1.86102 28.9254 1.59982 28.84C1.3604 28.7547 1.15361 28.6266 0.979484 28.4559C0.827119 28.3065 0.750938 28.0825 0.750938 27.7837C0.750938 27.485 0.848886 27.2075 1.04478 26.9515C1.26245 26.6954 1.49099 26.482 1.73042 26.3113C1.73042 23.8786 1.74131 21.4673 1.76307 19.0773C1.78484 16.6659 1.79572 14.244 1.79572 11.8113C1.79572 11.6405 1.78484 11.4699 1.76307 11.2992C1.76307 11.1072 1.75219 10.9257 1.73042 10.755C1.27333 10.7123 0.870652 10.5416 0.522391 10.2429C0.174131 9.94413 0 9.56002 0 9.09055C0 8.59975 0.185013 8.21564 0.55504 7.93824C0.946834 7.66083 1.40392 7.4581 1.92632 7.33007C2.44871 7.20203 2.98199 7.12735 3.52614 7.10601C4.09207 7.06333 4.56004 7.04199 4.93007 7.04199C5.4307 7.04199 5.86602 7.12735 6.23605 7.29806C6.60608 7.44743 6.8455 7.79953 6.95434 8.35436C7.65086 7.75685 8.45621 7.4581 9.3704 7.4581C10.437 7.4581 11.2531 7.71417 11.8191 8.22632C12.4068 8.73846 12.8312 9.37864 13.0924 10.1468C13.3537 10.915 13.5059 11.7473 13.5495 12.6435C13.593 13.5397 13.6148 14.372 13.6148 15.1402ZM8.58681 13.5077C8.58681 13.3797 8.57593 13.1984 8.55416 12.9637C8.53239 12.7289 8.48886 12.5048 8.42356 12.2914C8.38003 12.0567 8.29296 11.8647 8.16236 11.7153C8.05354 11.5445 7.90117 11.4592 7.70527 11.4592C7.53114 11.4592 7.36789 11.5232 7.21553 11.6512C7.06317 11.758 6.94345 11.8753 6.85639 12.0034C6.85639 12.9423 6.86727 13.8705 6.88903 14.7881C6.93257 15.7057 6.95434 16.6339 6.95434 17.5729L7.31348 17.6049C7.59644 17.6049 7.8141 17.4982 7.96646 17.2848C8.1406 17.0501 8.27119 16.7834 8.35826 16.4846C8.44532 16.1859 8.49975 15.8764 8.5215 15.5564C8.56504 15.2149 8.58681 14.9482 8.58681 14.7561V13.5077ZM8.84801 8.67444C8.45621 8.93051 7.97735 9.26127 7.41143 9.66671C6.8455 10.0508 6.27958 10.467 5.71366 10.915C5.14773 11.3418 4.61446 11.7793 4.11383 12.2274C3.61321 12.6542 3.22141 13.0383 2.93845 13.3797L2.9058 13.5397V13.6679L3.00375 13.5718C3.91793 12.6115 4.95183 11.7367 6.10545 10.947C7.25906 10.1575 8.36914 9.3893 9.43569 8.64243L8.84801 8.67444ZM6.46459 18.6932L6.0075 18.4691C5.48511 18.8533 4.93007 19.2801 4.34238 19.7495C3.77645 20.1976 3.27583 20.6671 2.8405 21.1579V21.638C3.38466 21.1259 3.97235 20.6351 4.60357 20.1656C5.25657 19.6748 5.87691 19.1946 6.46459 18.7252V18.6932ZM7.01963 19.5254C7.36789 19.184 7.75969 18.8746 8.19501 18.5972C8.65211 18.2984 9.12008 18.0211 9.59894 17.7649C10.0778 17.5089 10.5458 17.2528 11.0028 16.9967C11.4818 16.7407 11.928 16.4632 12.3415 16.1645L12.4068 15.6844C11.8409 16.0258 11.2858 16.3779 10.7417 16.7407C10.2193 17.0821 9.67512 17.4129 9.1092 17.7329C8.93507 18.0317 8.69564 18.2771 8.39091 18.4691C8.10795 18.6612 7.78146 18.7679 7.41143 18.7893L6.69314 19.3014L7.01963 19.5254ZM2.80786 17.7649C3.24318 17.3382 3.71116 16.8794 4.21178 16.3886C4.71241 15.8764 5.21303 15.4389 5.71366 15.0762V14.5641C5.6266 14.5854 5.44158 14.7134 5.15862 14.9482C4.87565 15.1829 4.57092 15.4497 4.24443 15.7484C3.9397 16.0258 3.64585 16.3032 3.3629 16.5806C3.07993 16.8367 2.89492 17.0074 2.80786 17.0927V17.7649ZM8.06441 19.9416L12.1129 17.4449V17.0287C11.7864 17.2634 11.4164 17.4876 11.0028 17.7009C10.5893 17.9143 10.1757 18.1277 9.76219 18.3411C9.37039 18.5545 8.9786 18.7786 8.58681 19.0133C8.21678 19.2481 7.89028 19.5041 7.60732 19.7815L8.06441 19.9416ZM2.80786 19.1093C3.30848 18.6612 3.79822 18.2238 4.27707 17.7969C4.75594 17.3702 5.24568 16.9434 5.7463 16.5166C5.72453 16.4099 5.71366 16.3032 5.71366 16.1965C5.71366 16.0899 5.71366 15.9831 5.71366 15.8764C5.2348 16.3032 4.75594 16.762 4.27707 17.2528C3.79822 17.7436 3.30848 18.1704 2.80786 18.5331V19.1093ZM5.51776 22.8543C5.08244 23.1745 4.63623 23.5052 4.17913 23.8466C3.72204 24.188 3.29759 24.5402 2.9058 24.903V25.447C3.34113 25.127 3.77645 24.8175 4.21178 24.5188C4.66887 24.22 5.09331 23.8893 5.48511 23.5265L5.51776 22.9183V22.8543ZM2.87315 24.1347C3.30848 23.772 3.75468 23.4198 4.21178 23.0785C4.66887 22.737 5.11508 22.3742 5.5504 21.9901L5.58306 21.3179C5.19126 21.7661 4.74505 22.1608 4.24443 22.5023C3.7438 22.8437 3.28671 23.2278 2.87315 23.6546V24.1347ZM9.72954 15.5564C10.1649 15.2576 10.6002 14.9802 11.0355 14.7241C11.4926 14.468 11.9388 14.2013 12.3742 13.9239L12.3415 13.2837C11.8844 13.5612 11.449 13.8599 11.0355 14.1799C10.6219 14.5 10.1975 14.7987 9.76219 15.0762L9.72954 15.5564ZM2.8405 20.3256C3.2323 19.8989 3.68939 19.4828 4.21178 19.0773C4.75594 18.6506 5.26744 18.2558 5.7463 17.8929V17.3168C5.26744 17.7009 4.79947 18.1277 4.34238 18.5972C3.88529 19.0666 3.40643 19.4828 2.9058 19.8455L2.8405 19.8776V20.3256ZM5.68101 13.2837C5.24568 13.6465 4.73417 14.0626 4.14648 14.5321C3.58056 14.9802 3.14523 15.4389 2.8405 15.9084L2.80786 16.2926C3.30848 15.9297 3.77645 15.5244 4.21178 15.0762C4.66887 14.6281 5.15862 14.2227 5.68101 13.8599V13.2837ZM5.68101 12.1634C5.18038 12.5475 4.70152 12.9423 4.24443 13.3477C3.80911 13.7319 3.35201 14.1372 2.87315 14.5641L2.8405 15.0122C3.34113 14.7134 3.81999 14.3187 4.27707 13.8279C4.73417 13.337 5.20215 12.9102 5.68101 12.5475V12.1634ZM5.5504 20.2296C5.09331 20.5711 4.62534 20.9231 4.14648 21.2859C3.66762 21.6487 3.2323 22.0435 2.8405 22.4703V22.8863C3.31936 22.5236 3.77645 22.1181 4.21178 21.67C4.6471 21.2219 5.1042 20.8378 5.58306 20.5178L5.5504 20.2296ZM9.72954 12.8035L9.76219 13.2517C10.154 12.953 10.5566 12.6755 10.9702 12.4195C11.3837 12.1634 11.7973 11.886 12.2109 11.5872L12.1129 11.0751L9.72954 12.8035ZM11.5253 9.57069C11.4818 9.50667 11.4273 9.44265 11.362 9.37864C11.2967 9.31462 11.2205 9.26127 11.1335 9.21859C10.8505 9.496 10.5131 9.79474 10.1213 10.1148C9.72954 10.4136 9.3704 10.659 9.04389 10.851L9.27245 11.1712C9.686 11.0004 10.056 10.7443 10.3825 10.403C10.709 10.0401 11.0899 9.76274 11.5253 9.57069ZM9.53364 16.7727C10.0125 16.4739 10.4805 16.1752 10.9375 15.8764C11.4164 15.5777 11.9062 15.2789 12.4068 14.9802V14.5961C11.9497 14.9162 11.4708 15.2149 10.9702 15.4924C10.4913 15.7484 10.0343 16.0578 9.59894 16.4206L9.53364 16.7727ZM2.93845 26.6314C3.35201 26.29 3.77645 25.9699 4.21178 25.6712C4.6471 25.3724 5.07155 25.0523 5.48511 24.7108V24.2948C5.04978 24.6148 4.60357 24.9243 4.14648 25.223C3.71116 25.5431 3.30848 25.8952 2.93845 26.2793V26.6314ZM11.8191 10.0828C11.4055 10.3389 11.0138 10.6163 10.6437 10.915C10.2955 11.2138 9.92544 11.4912 9.53364 11.7473L9.63159 12.0994C10.0234 11.822 10.4043 11.5552 10.7743 11.2992C11.1662 11.0217 11.5579 10.7443 11.9497 10.467L11.8191 10.0828ZM5.77896 8.61043C5.32186 9.01587 4.82123 9.41064 4.27707 9.79474C3.75468 10.1788 3.31936 10.627 2.9711 11.1392V11.4272C3.40643 10.979 3.86352 10.5523 4.34238 10.1468C4.843 9.74141 5.32186 9.33595 5.77896 8.93051V8.61043ZM2.9711 12.5155C3.42819 12.0674 3.91793 11.6405 4.44033 11.2352C4.96272 10.8083 5.47422 10.3922 5.97486 9.9868C5.93132 9.94413 5.89866 9.90144 5.87691 9.85876C5.85514 9.81609 5.82248 9.77341 5.77896 9.73073C5.30009 10.1575 4.82123 10.5737 4.34238 10.979C3.86352 11.3845 3.40643 11.8113 2.9711 12.2594V12.5155ZM10.2519 8.77046C10.1431 8.83448 9.96897 8.94118 9.72954 9.09055C9.51187 9.23993 9.28333 9.39997 9.04389 9.57069C8.80447 9.72006 8.57593 9.86944 8.35826 10.0188C8.16236 10.1468 8.04265 10.2429 7.99912 10.3069L8.55416 10.499C8.90242 10.2429 9.23979 9.97613 9.56629 9.69872C9.89278 9.39997 10.2302 9.13323 10.5784 8.8985L10.2519 8.77046ZM11.7538 18.3731C11.2749 18.6292 10.7853 18.8853 10.2846 19.1413C9.80572 19.3974 9.35951 19.7068 8.94596 20.0696L9.53364 20.0376C9.83837 19.8455 10.1431 19.6641 10.4478 19.4934C10.7743 19.3227 11.0899 19.1413 11.3947 18.9493L11.7538 18.3731ZM9.79484 14.308C10.2302 14.0519 10.6437 13.7639 11.0355 13.4437C11.449 13.1237 11.8735 12.8462 12.3089 12.6115L12.2762 12.2274C11.8409 12.5262 11.4055 12.8142 10.9702 13.0917C10.5566 13.369 10.154 13.6892 9.76219 14.0519L9.79484 14.308ZM2.80786 27.8157C3.24318 27.453 3.68939 27.1115 4.14648 26.7914C4.60357 26.4713 5.04978 26.1299 5.48511 25.7672V25.447C4.98449 25.8525 4.47297 26.2367 3.95058 26.5994C3.42819 26.9835 2.91669 27.3889 2.41606 27.8157H2.80786ZM3.52614 8.32234C3.26495 8.49306 3.02551 8.68511 2.80786 8.8985C2.61196 9.09055 2.41606 9.30395 2.22016 9.53867L2.5793 9.63471L2.61196 9.66671H2.64461C2.88404 9.43199 3.12346 9.19725 3.3629 8.96252C3.60232 8.70645 3.85263 8.47171 4.11383 8.25832L3.52614 8.32234ZM4.24443 27.7837C4.44033 27.6344 4.63623 27.4743 4.83212 27.3035C5.02801 27.1329 5.24568 26.9942 5.48511 26.8875V26.5034C5.44158 26.5034 5.33275 26.5567 5.15862 26.6634C5.00625 26.7914 4.83212 26.9302 4.63623 27.0795C4.44033 27.2502 4.24443 27.3996 4.04853 27.5277C3.8744 27.677 3.76557 27.773 3.72204 27.8157L4.24443 27.7837ZM5.06067 8.25832C4.99537 8.30101 4.87565 8.4077 4.70152 8.57841C4.52739 8.72778 4.34238 8.88783 4.14648 9.05855C3.90706 9.27194 3.65674 9.496 3.39554 9.73073L3.00375 10.1468C3.35201 9.78408 3.73293 9.46399 4.14648 9.18658C4.56004 8.88783 4.95183 8.57841 5.32186 8.25832H5.06067ZM1.46923 9.47466C1.59982 9.30395 1.74131 9.1439 1.89367 8.99453C2.04603 8.84515 2.1984 8.68511 2.35076 8.51439C2.30722 8.53573 2.23104 8.54641 2.12221 8.54641C1.96985 8.67444 1.81749 8.80248 1.66513 8.93051C1.53453 9.05855 1.40392 9.19725 1.27333 9.34662L1.46923 9.47466Z" fill="#E08D22"/>
    <path d="M20.2558 21.6379C19.2328 21.6379 18.3513 21.4245 17.6113 20.9977C16.8929 20.5923 16.2944 20.0588 15.8155 19.3973C15.3367 18.7145 14.9776 17.9462 14.7381 17.0926C14.5204 16.2391 14.4116 15.3748 14.4116 14.4999C14.4116 13.6891 14.5422 12.8248 14.8034 11.9072C15.0863 10.9896 15.4781 10.1467 15.9787 9.37853C16.5012 8.61032 17.1433 7.98082 17.9051 7.49001C18.6669 6.97787 19.5376 6.7218 20.5171 6.7218C21.1482 6.7218 21.7468 6.83916 22.3127 7.07389C22.8787 7.30863 23.3793 7.63938 23.8147 8.06617C24.2499 8.47161 24.5873 8.95175 24.8268 9.50657C25.088 10.0614 25.2186 10.6482 25.2186 11.2671C25.2186 11.7152 25.1424 12.1846 24.99 12.6754C24.8377 13.1449 24.6091 13.5824 24.3044 13.9878C24.0214 14.3719 23.6731 14.692 23.2596 14.9481C22.846 15.1828 22.378 15.3001 21.8557 15.3001C21.4638 15.3001 21.0939 15.2148 20.7456 15.0441C20.3974 14.8521 20.1362 14.5746 19.962 14.2119V14.3719C19.962 14.692 19.9946 15.0654 20.0599 15.4923C20.147 15.8976 20.2668 16.2818 20.4191 16.6445C20.5932 16.986 20.8109 17.2847 21.0721 17.5408C21.355 17.7755 21.7033 17.8928 22.1169 17.8928C22.3998 17.8928 22.6284 17.7862 22.8025 17.5728C22.9766 17.3594 23.1398 17.1247 23.2922 16.8686C23.4664 16.6125 23.6405 16.3778 23.8147 16.1644C24.0106 15.951 24.2717 15.8443 24.5982 15.8443C25.0335 15.8443 25.3492 16.0043 25.545 16.3245C25.7409 16.6445 25.839 16.986 25.839 17.3488C25.839 17.989 25.6539 18.5757 25.2839 19.1092C24.9356 19.6213 24.4786 20.0695 23.9126 20.4535C23.3685 20.8164 22.7699 21.1044 22.1169 21.3178C21.4638 21.5312 20.8436 21.6379 20.2558 21.6379ZM20.0599 12.8675C20.2123 12.7181 20.3429 12.6221 20.4517 12.5794C20.5824 12.5154 20.702 12.4727 20.8109 12.4514C20.9415 12.4301 21.0721 12.4194 21.2027 12.4194C21.355 12.3981 21.5183 12.3661 21.6925 12.3234C21.8447 12.1099 21.921 11.8752 21.921 11.6191C21.921 11.3204 21.8665 11.0964 21.7578 10.9469C21.6489 10.7762 21.4421 10.6376 21.1374 10.5309H21.1047C20.9306 10.6162 20.7783 10.7549 20.6477 10.9469C20.5388 11.1391 20.4408 11.3524 20.3538 11.5871C20.2885 11.8006 20.2232 12.0246 20.1579 12.2593C20.1144 12.4941 20.0817 12.6968 20.0599 12.8675ZM18.754 14.0198C18.7758 13.9131 18.7866 13.8064 18.7866 13.6998C18.7866 13.5717 18.7866 13.4543 18.7866 13.3476C18.286 13.8171 17.7745 14.2759 17.2521 14.724C16.7297 15.1508 16.2399 15.6203 15.7829 16.1324L15.8482 16.4525C16.3053 16.0043 16.7842 15.5989 17.2847 15.2361C17.8071 14.8521 18.2968 14.4466 18.754 14.0198ZM21.2353 8.03416C20.7347 8.29024 20.245 8.59965 19.7661 8.96241C19.309 9.30385 18.8628 9.67728 18.4275 10.0827C17.9922 10.4882 17.5568 10.8936 17.1215 11.2991C16.7079 11.7046 16.2944 12.0993 15.8808 12.4834L15.7829 12.8354C16.2835 12.3447 16.7842 11.8752 17.2847 11.4271C17.7853 10.9576 18.2968 10.5095 18.8193 10.0827C19.2546 9.71996 19.7008 9.39987 20.1579 9.12246C20.615 8.82371 21.0612 8.50362 21.4965 8.16219L21.5619 8.09817L21.2353 8.03416ZM16.1746 17.5408C16.61 17.1567 17.0453 16.7939 17.4807 16.4525C17.9159 16.0898 18.3621 15.727 18.8193 15.3641L18.7866 14.8521C18.3295 15.2148 17.8506 15.5776 17.3501 15.9403C16.8711 16.2818 16.4249 16.6658 16.0114 17.0926L16.1746 17.5408ZM15.6196 14.1798C16.338 13.497 17.078 12.8141 17.8398 12.1313C18.6016 11.4484 19.2981 10.7336 19.9294 9.98669C19.1457 10.5415 18.4057 11.1604 17.7092 11.8432C17.0345 12.5047 16.3488 13.1663 15.6523 13.8278L15.6196 14.1798ZM19.0478 11.7792C18.4819 12.3127 17.9159 12.8568 17.3501 13.4116C16.7842 13.9451 16.2073 14.4679 15.6196 14.9801L15.6523 15.3321C16.1529 14.8201 16.6753 14.3293 17.2194 13.8598C17.7853 13.3903 18.3513 12.9209 18.9172 12.4514L19.0478 11.7792ZM17.9377 19.7494C18.2642 19.472 18.6016 19.2159 18.9499 18.9812C19.2981 18.7251 19.6464 18.4583 19.9946 18.181C19.9512 18.1383 19.9076 18.085 19.8641 18.021C19.8206 17.9568 19.7879 17.8928 19.7661 17.8288C19.4397 18.149 19.0805 18.437 18.6887 18.6931C18.2968 18.9492 17.9269 19.2266 17.5786 19.5253L17.9377 19.7494ZM17.1215 19.1092C17.4915 18.7678 17.8724 18.469 18.2642 18.213C18.6777 17.9355 19.0696 17.6368 19.4397 17.3167L19.2437 16.9006C18.9607 17.2207 18.5798 17.5728 18.101 17.9568C17.6439 18.3197 17.2412 18.6185 16.8929 18.8532L17.1215 19.1092ZM16.5665 18.341C16.9582 17.9996 17.3827 17.6688 17.8398 17.3488C18.3186 17.0073 18.7104 16.6445 19.0152 16.2605L18.9499 16.0363C18.0575 16.7193 17.2194 17.4128 16.4359 18.117L16.5665 18.341ZM19.0152 20.2295C19.2981 19.9735 19.5811 19.7387 19.8641 19.5253C20.1688 19.2906 20.4735 19.0558 20.7783 18.8211L20.4517 18.5971C20.147 18.8318 19.8314 19.0772 19.505 19.3333C19.1784 19.568 18.8519 19.8027 18.5255 20.0375L19.0152 20.2295ZM24.4023 18.181C24.4023 18.2023 24.4023 18.213 24.4023 18.213C24.4241 18.1916 24.435 18.1703 24.435 18.149C24.435 18.1276 24.4459 18.1063 24.4676 18.085L24.5982 17.6688C24.054 18.1383 23.5099 18.5864 22.9658 19.0132C22.4216 19.4187 21.8665 19.8454 21.3006 20.2935L21.9863 20.0375C22.378 19.696 22.7807 19.3867 23.1943 19.1092C23.6296 18.8318 24.0324 18.5223 24.4023 18.181ZM21.4638 19.0772C21.1592 19.248 20.8544 19.4507 20.5497 19.6853C20.2668 19.9201 20.0055 20.1548 19.7661 20.3895L20.2232 20.4215C20.4844 20.1868 20.7456 19.9628 21.0068 19.7494C21.268 19.536 21.5401 19.3226 21.823 19.1092L21.4638 19.0772ZM23.7494 12.6434C23.3575 12.8354 22.9766 13.0489 22.6067 13.2836C22.2366 13.5183 21.8774 13.7638 21.5292 14.0198L21.823 14.0838C22.0842 13.8918 22.3454 13.7211 22.6067 13.5717C22.8895 13.4009 23.1834 13.2303 23.4881 13.0596L23.7494 12.6434ZM20.0273 7.97015C19.8532 8.14085 19.5702 8.37559 19.1784 8.67434C18.8084 8.95175 18.4166 9.2505 18.003 9.57059C17.6113 9.86934 17.2521 10.1681 16.9256 10.4669C16.5991 10.7442 16.4033 10.9683 16.338 11.1391C16.9909 10.6269 17.6221 10.0827 18.2315 9.50657C18.8411 8.93041 19.494 8.41827 20.1905 7.97015H20.0273ZM22.9005 8.86639C22.5739 9.01576 22.2474 9.22915 21.921 9.50657L22.3127 9.69862C22.4651 9.59192 22.5957 9.48523 22.7046 9.37853C22.8352 9.27183 22.9766 9.16513 23.129 9.05845L22.9005 8.86639ZM23.9126 10.4029L23.0311 10.9789L23.0964 11.3311C23.2269 11.2244 23.3685 11.1284 23.5208 11.043C23.6949 10.9576 23.8582 10.8723 24.0106 10.7869L23.9126 10.4029ZM23.5208 9.53857C23.3685 9.64527 23.2269 9.75197 23.0964 9.85866C22.9876 9.96536 22.8569 10.0614 22.7046 10.1467L22.8352 10.3708C22.9876 10.2854 23.129 10.2001 23.2596 10.1147C23.3902 10.008 23.5208 9.90134 23.6513 9.79464L23.5208 9.53857ZM24.0432 11.4591C23.869 11.5018 23.7058 11.5871 23.5534 11.7152C23.4011 11.8432 23.2487 11.9606 23.0964 12.0673L23.0311 12.3554C23.314 12.1846 23.6296 12.0246 23.9779 11.8752L24.0432 11.4591ZM22.2148 8.38626C21.9754 8.55697 21.7251 8.72768 21.4638 8.8984C21.2245 9.04778 20.985 9.20782 20.7456 9.37853L21.2027 9.2825C21.3985 9.17581 21.5836 9.04778 21.7578 8.8984C21.9536 8.72768 22.1495 8.57831 22.3454 8.45027L22.2148 8.38626Z" fill="#E08D22"/>
    <path d="M46.0303 6.97797C46.5092 6.97797 46.9337 7.11668 47.3037 7.39408C47.6955 7.6715 47.8914 8.06627 47.8914 8.57841C47.8914 8.94118 47.7608 9.27193 47.4996 9.57069C47.2602 9.84809 46.9554 10.0295 46.5854 10.1148C46.4983 10.3709 46.3242 10.8083 46.063 11.4272C45.8018 12.046 45.4862 12.7395 45.1161 13.5077C44.7679 14.276 44.387 15.0869 43.9734 15.9404C43.5599 16.7727 43.1572 17.5409 42.7654 18.2451C42.3954 18.9493 42.058 19.5468 41.7533 20.0376C41.4485 20.5284 41.2309 20.8058 41.1002 20.8698C40.8827 20.9765 40.654 21.0298 40.4147 21.0298C40.1099 21.0298 39.8379 20.9551 39.5984 20.8058C39.4678 20.7204 39.261 20.4323 38.978 19.9416C38.7169 19.4508 38.4122 18.8639 38.0639 18.1811C37.7374 17.4769 37.3891 16.7087 37.0192 15.8764C36.6491 15.0442 36.29 14.244 35.9417 13.4757C35.6152 12.7075 35.3213 12.014 35.0602 11.3952C34.799 10.7763 34.603 10.3176 34.4724 10.0188C34.0807 9.97613 33.6998 9.86944 33.3297 9.69872C32.9815 9.50667 32.8074 9.16524 32.8074 8.67444C32.8074 8.20497 32.9923 7.83154 33.3624 7.55413C33.7324 7.27671 34.1786 7.07399 34.701 6.94596C35.2234 6.81792 35.7457 6.75391 36.2682 6.75391C36.8123 6.75391 37.2477 6.79659 37.5741 6.88194C37.683 6.83927 37.8027 6.82859 37.9332 6.84994C38.0856 6.84994 38.2162 6.84994 38.3251 6.84994C38.5863 6.84994 38.8474 6.87127 39.1087 6.91396C39.3917 6.95663 39.6419 7.04199 39.8596 7.17003C40.0991 7.27671 40.2949 7.43676 40.4473 7.65015C40.5997 7.8422 40.6758 8.08761 40.6758 8.38636C40.6758 8.70645 40.5561 8.99453 40.3167 9.2506C40.0991 9.50667 39.8487 9.69872 39.5658 9.82676C39.9358 10.5523 40.2841 11.2565 40.6106 11.9393C40.937 12.6222 41.3289 13.305 41.7859 13.9879C42.1124 13.3264 42.4063 12.6542 42.6675 11.9713C42.9286 11.2672 43.179 10.5737 43.4184 9.89077C43.0702 9.82676 42.7219 9.68805 42.3737 9.47466C42.0471 9.23993 41.8839 8.91984 41.8839 8.51439C41.8839 8.15162 41.9928 7.87422 42.2103 7.68217C42.428 7.46877 42.6893 7.3194 42.9939 7.23404C43.3205 7.12734 43.6578 7.06333 44.0061 7.04199C44.3543 7.02064 44.6591 7.00998 44.9203 7.00998L46.0303 6.97797ZM42.4716 16.1325C41.971 16.4312 41.4485 16.7514 40.9044 17.0927C40.382 17.4342 39.8922 17.7863 39.4352 18.1491L39.5658 18.4371C39.9793 18.1384 40.3929 17.8609 40.8064 17.6049C41.22 17.3274 41.6553 17.0821 42.1124 16.8687L42.4716 16.1325ZM36.105 10.659C36.2137 10.531 36.4096 10.3389 36.6926 10.0828C36.9756 9.80542 37.2585 9.52801 37.5415 9.2506C37.8463 8.97318 38.1183 8.72778 38.3578 8.51439C38.5971 8.27966 38.7387 8.13029 38.7822 8.06627L38.4557 8.03426C38.0203 8.41837 37.6068 8.81314 37.215 9.21859C36.8232 9.62404 36.4096 10.0295 35.9744 10.435L36.0397 10.499L36.105 10.659ZM43.1245 14.7881C43.081 14.8309 43.0049 14.8842 42.896 14.9482C42.7872 15.0122 42.6675 15.0869 42.5369 15.1722C42.428 15.2576 42.3192 15.3322 42.2103 15.3962C42.1015 15.4389 42.0362 15.4604 42.0144 15.4604L41.8839 15.5564H41.8186C41.3615 15.8551 40.9044 16.1645 40.4473 16.4846C39.9902 16.7834 39.5549 17.1141 39.1414 17.4769L39.174 17.6049C39.7834 17.1354 40.4037 16.7087 41.035 16.3246C41.688 15.9404 42.3301 15.535 42.9613 15.1082L43.1245 14.7881ZM40.1535 13.6678C39.7182 13.8385 39.3481 14.0839 39.0434 14.404C38.7387 14.7241 38.3904 14.9802 37.9986 15.1722L38.1292 15.4283C38.1945 15.4069 38.2707 15.3536 38.3578 15.2682C38.6624 15.0335 38.989 14.8202 39.3372 14.6281C39.6855 14.4147 40.012 14.1799 40.3167 13.9239L40.2841 13.8279L40.1535 13.6678ZM38.8148 11.1071C38.5101 11.3845 38.1945 11.662 37.868 11.9393C37.5633 12.2167 37.2585 12.5048 36.9539 12.8035L37.0518 13.0597C37.3348 12.7822 37.6504 12.5048 37.9986 12.2274C38.3469 11.95 38.6842 11.7153 39.0108 11.5232L38.8148 11.1071ZM37.7374 14.6601C38.1074 14.4254 38.4448 14.1692 38.7495 13.8919C39.0543 13.5932 39.4134 13.3477 39.8269 13.1557L39.6637 12.8355C39.2936 13.0703 38.9454 13.3264 38.6189 13.6038C38.2925 13.8599 37.966 14.1372 37.6394 14.436L37.7374 14.6601ZM37.3783 13.8599C37.7265 13.6038 38.053 13.3477 38.3578 13.0917C38.6624 12.8142 39.0108 12.5582 39.4025 12.3235L39.272 12.0674C38.9019 12.3022 38.5536 12.5582 38.2272 12.8355C37.9224 13.0917 37.6068 13.369 37.2803 13.6678L37.3783 13.8599ZM38.8801 16.9327C39.2502 16.6339 39.6202 16.3566 39.9902 16.1005C40.3602 15.8231 40.7411 15.5564 41.1329 15.3002C41.0894 15.2789 41.0568 15.2469 41.035 15.2042C41.035 15.1616 41.0241 15.1189 41.0023 15.0762C40.654 15.3749 40.2841 15.6524 39.8922 15.9084C39.5005 16.1432 39.1304 16.4099 38.7822 16.7087L38.8801 16.9327ZM40.6432 14.436C40.2731 14.7134 39.8922 14.9695 39.5005 15.2042C39.1304 15.4389 38.7605 15.7057 38.3904 16.0044L38.4883 16.1645C38.8584 15.8871 39.2393 15.631 39.6311 15.3962C40.0228 15.1616 40.382 14.8842 40.7085 14.5641L40.6432 14.436ZM36.7252 12.2274C37.0082 11.9287 37.313 11.6405 37.6394 11.3632C37.966 11.0858 38.2707 10.7977 38.5536 10.499L38.4557 10.2429C38.1509 10.5416 37.8463 10.8403 37.5415 11.1392C37.2585 11.4379 36.9756 11.7473 36.6926 12.0674L36.7252 12.2274ZM36.4641 11.4272L38.1945 9.66671L38.1619 9.47466C37.8571 9.75207 37.5523 10.0401 37.2477 10.3389C36.9647 10.6377 36.6709 10.9364 36.3661 11.2352L36.4641 11.4272ZM37.5088 8.06627H37.215C36.9103 8.32234 36.6382 8.58908 36.3988 8.86649C36.1593 9.12256 35.8981 9.39997 35.6152 9.69872L35.7131 9.85876L37.5088 8.06627ZM44.7244 9.6347C45.0509 9.46399 45.3665 9.30395 45.6712 9.15457C45.9977 9.0052 46.3242 8.85583 46.6507 8.70645L46.6834 8.67444L46.6181 8.41837C46.3786 8.61042 46.0739 8.79181 45.7039 8.96252C45.3338 9.1119 45.0074 9.27193 44.7244 9.44265V9.6347ZM41.6553 17.7649C41.3506 17.9569 41.0459 18.1704 40.7411 18.4051C40.4365 18.6186 40.1317 18.8106 39.8269 18.9813L39.8596 19.0773C40.1209 18.9066 40.3711 18.7466 40.6106 18.5972C40.8717 18.4478 41.1547 18.3304 41.4595 18.2451L41.6553 17.7649ZM35.1908 8.93051L35.354 9.09055C35.637 8.74913 35.9526 8.40769 36.3008 8.06627H36.105L35.1908 8.93051ZM44.5285 8.86649C44.5502 8.86649 44.6155 8.83448 44.7244 8.77046C44.855 8.70645 44.9856 8.64243 45.1161 8.57841C45.2685 8.49306 45.4101 8.41837 45.5407 8.35435C45.6712 8.26899 45.7583 8.21564 45.8018 8.19431H45.6386L45.3773 8.22632C45.2032 8.33301 45.04 8.42904 44.8876 8.51439C44.757 8.59975 44.6155 8.69578 44.4632 8.80248L44.5285 8.86649ZM35.0275 8.09827C34.9186 8.20497 34.799 8.32234 34.6683 8.45038C34.5377 8.55708 34.418 8.67444 34.3092 8.80248H34.4724C34.603 8.67444 34.7228 8.54641 34.8317 8.41837C34.9622 8.29034 35.1037 8.17297 35.256 8.06627L35.0275 8.09827ZM41.0676 19.0133C40.7193 19.2053 40.4147 19.4081 40.1535 19.6214L40.2188 19.6855C40.4365 19.5361 40.665 19.4081 40.9044 19.3014L41.0676 19.0133ZM39.4025 8.29034C39.3372 8.37569 39.272 8.46104 39.2067 8.54641C39.1414 8.61042 39.0543 8.66376 38.9454 8.70645C39.1631 8.66376 39.3481 8.55707 39.5005 8.38636L39.4025 8.29034ZM44.9856 10.883L44.1367 11.3632L44.104 11.4272L44.8876 11.0431L44.9856 10.883ZM43.4184 13.2197V13.2517C43.4619 13.2517 43.549 13.2197 43.6796 13.1557C43.8102 13.0917 43.8973 13.049 43.9408 13.0277L44.0061 12.8676L43.4511 13.1877L43.4184 13.2197ZM45.3773 9.92278C45.2467 10.0081 45.1162 10.0828 44.9856 10.1468C44.855 10.2109 44.7352 10.2855 44.6265 10.3709L45.3447 10.0188L45.3773 9.92278ZM43.0266 14.1479C43.1137 14.1052 43.2008 14.0626 43.2879 14.0199C43.3748 13.9559 43.4619 13.8919 43.549 13.8279L43.0592 14.0839L43.0266 14.1479ZM44.4306 11.9393C44.2782 12.046 44.104 12.1527 43.9081 12.2594L44.4306 12.0034V11.9393ZM43.6143 8.70645L43.6796 8.64243L43.5817 8.67444L43.6143 8.70645Z" fill="#E08D22"/>
    <path d="M48.4975 19.5253C48.4975 19.1625 48.6063 18.8638 48.824 18.6291C49.0634 18.373 49.3355 18.1916 49.6403 18.085C49.5532 16.8473 49.5422 15.5989 49.6076 14.3399C49.6946 13.0809 49.6729 11.8432 49.5423 10.6269C49.2375 10.4989 48.9764 10.3175 48.7587 10.0827C48.541 9.82666 48.4321 9.5279 48.4321 9.18648C48.4321 8.86639 48.5302 8.59966 48.7261 8.38626C48.9219 8.15152 49.1505 7.97014 49.4116 7.8421C49.6946 7.71407 49.9994 7.61805 50.3258 7.55403C50.6524 7.49001 50.9462 7.458 51.2074 7.458C51.5338 7.458 51.9474 7.47934 52.448 7.52202C52.9487 7.5647 53.4275 7.65005 53.8847 7.77809C54.3417 7.90612 54.7335 8.10885 55.06 8.38626C55.4083 8.64233 55.5824 8.99443 55.5824 9.44255C55.5824 9.78397 55.4736 10.0934 55.2559 10.3708C55.06 10.6269 54.8097 10.8296 54.505 10.9789C54.4833 11.5764 54.4723 12.1739 54.4723 12.7714C54.4723 13.3476 54.4723 13.9344 54.4723 14.5319L54.505 18.053C54.8097 18.1383 55.06 18.309 55.2559 18.565C55.4736 18.7998 55.5824 19.0772 55.5824 19.3973C55.5824 19.76 55.441 20.0695 55.158 20.3255C54.875 20.5603 54.5268 20.7417 54.1132 20.8697C53.6996 21.019 53.2751 21.1152 52.8399 21.1578C52.4045 21.2218 52.0454 21.2538 51.7625 21.2538C51.4577 21.2538 51.1203 21.2325 50.7503 21.1898C50.3803 21.1685 50.0212 21.1044 49.6729 20.9977C49.3463 20.891 49.0634 20.7203 48.824 20.4855C48.6063 20.2509 48.4975 19.9308 48.4975 19.5253ZM52.0236 6.97787C51.6536 6.97787 51.3271 6.89251 51.0441 6.7218C50.7612 6.52975 50.5217 6.29502 50.3258 6.0176C50.1299 5.74019 49.9776 5.44144 49.8688 5.12136C49.7599 4.77993 49.7055 4.44918 49.7055 4.12908C49.7055 3.51025 49.8906 2.92341 50.2605 2.3686C50.6306 1.81378 51.1312 1.45101 51.7625 1.28029L51.8931 1.31231C52.0671 1.26963 52.1977 1.24829 52.2848 1.24829C52.6766 1.24829 53.0248 1.33364 53.3296 1.50436C53.6561 1.65373 53.9282 1.85646 54.1458 2.11253C54.3852 2.3686 54.5594 2.66734 54.6682 3.00878C54.7988 3.3502 54.8642 3.7023 54.8642 4.06507C54.8642 4.42783 54.7879 4.7906 54.6355 5.15337C54.4833 5.49479 54.2764 5.80421 54.0153 6.08163C53.7541 6.35903 53.4493 6.58309 53.1011 6.75381C52.7746 6.90318 52.4154 6.97787 52.0236 6.97787ZM53.2643 15.0121C52.8725 15.3748 52.459 15.727 52.0236 16.0683C51.6101 16.4098 51.2182 16.7726 50.8483 17.1567V17.3488C51.2182 17.0286 51.6101 16.7193 52.0236 16.4205C52.4372 16.1004 52.8507 15.791 53.2643 15.4923V15.0121ZM53.3622 8.86639C52.9269 9.18648 52.4916 9.51724 52.0563 9.85866C51.6209 10.1788 51.2074 10.5202 50.8156 10.8829V11.1711C51.3163 10.8082 51.7951 10.4349 52.2522 10.0507C52.731 9.66661 53.2099 9.29317 53.6887 8.93041L53.3622 8.86639ZM50.8156 15.3641C51.2509 15.0014 51.6536 14.6386 52.0236 14.2759C52.4154 13.9131 52.8289 13.5717 53.2643 13.2516V13.0276C52.8289 13.3263 52.3937 13.6357 51.9583 13.9558C51.523 14.2546 51.1421 14.6173 50.8156 15.0441V15.3641ZM50.8809 18.437C50.9244 18.373 51.0659 18.245 51.3053 18.053C51.5665 17.8608 51.8386 17.6581 52.1216 17.4448C52.4045 17.2313 52.6549 17.0393 52.8725 16.8686C53.1119 16.6765 53.2534 16.5805 53.2969 16.5805V16.2605C52.8616 16.5165 52.4372 16.8153 52.0236 17.1567C51.6101 17.4768 51.2182 17.8075 50.8483 18.149L50.8809 18.437ZM50.8483 12.0993C51.4359 11.6725 52.0018 11.2244 52.546 10.7549C53.1119 10.2854 53.7105 9.85866 54.3417 9.47456L54.2764 9.2825C53.9717 9.45322 53.6779 9.66661 53.3949 9.92268C53.1119 10.1788 52.8289 10.4349 52.546 10.6909C52.263 10.9469 51.98 11.1924 51.6972 11.4271C51.4142 11.6618 51.1312 11.8432 50.8483 11.9712V12.0993ZM50.2605 19.9415C50.6959 19.5147 51.1747 19.1199 51.6972 18.7571C52.2195 18.373 52.742 18.0103 53.2643 17.6688V17.3808C53.0466 17.5515 52.7963 17.7542 52.5133 17.989C52.2522 18.2236 51.98 18.4583 51.6972 18.6931C51.4142 18.9278 51.1312 19.1519 50.8483 19.3653C50.5653 19.5573 50.3041 19.7174 50.0647 19.8454L50.2605 19.9415ZM53.2643 10.9469C52.8507 11.2671 52.4263 11.5978 51.991 11.9392C51.5774 12.2593 51.1965 12.6114 50.8483 12.9956V13.2196C51.2618 12.9422 51.6645 12.6114 52.0563 12.2273C52.4698 11.8432 52.8725 11.4911 53.2643 11.1711V10.9469ZM53.5255 3.4889C53.1555 3.80899 52.7963 4.12908 52.448 4.44918C52.1216 4.76926 51.7951 5.11069 51.4685 5.47346L51.5665 5.56948C51.8712 5.24939 52.2087 4.96132 52.5786 4.70525C52.9705 4.42783 53.3187 4.12908 53.6234 3.80899L53.5255 3.4889ZM50.9788 4.03306C51.2618 3.75565 51.5448 3.49958 51.8278 3.26485C52.1324 3.03011 52.4045 2.76338 52.6439 2.46462L52.4807 2.43262L52.1542 2.52864C51.98 2.69936 51.7951 2.88074 51.5991 3.0728C51.425 3.24351 51.2509 3.41422 51.0768 3.58493C51.0768 3.60627 51.0659 3.64895 51.0441 3.71297C51.0223 3.75565 51.0006 3.75565 50.9788 3.71297V4.03306ZM52.2195 8.73836C51.98 8.93041 51.7298 9.13313 51.4685 9.34652C51.2074 9.53857 50.9462 9.71996 50.685 9.89067L50.7503 10.1147C51.0333 9.88001 51.3053 9.65594 51.5665 9.44255C51.8494 9.22915 52.1434 9.0051 52.448 8.77036L52.2195 8.73836ZM53.1337 2.81673C52.7854 3.13681 52.4372 3.4569 52.0889 3.77699C51.7407 4.09707 51.4033 4.4385 51.0768 4.80127L51.1421 4.96132C51.4685 4.59855 51.806 4.25712 52.1542 3.93704C52.5025 3.5956 52.8616 3.27552 53.2316 2.97676L53.1337 2.81673ZM53.2643 14.0198C52.8289 14.3399 52.4045 14.692 51.991 15.0761C51.5991 15.4603 51.2182 15.8336 50.8483 16.1964V16.3245C51.2182 15.9403 51.6101 15.5883 52.0236 15.2681C52.4372 14.9268 52.8289 14.5746 53.199 14.2119L53.2643 14.1478V14.0198ZM53.2316 11.9712C52.8616 12.2699 52.5025 12.5794 52.1542 12.8995C51.806 13.1983 51.4577 13.5183 51.1094 13.8598C51.4359 13.5611 51.7733 13.2836 52.1216 13.0276C52.4916 12.7714 52.8616 12.5154 53.2316 12.2593V11.9712ZM51.2727 20.0695C51.8604 19.4507 52.5133 18.9278 53.2316 18.501L53.2643 18.437V18.373C52.8725 18.6291 52.4916 18.8958 52.1216 19.1732C51.7515 19.4507 51.3924 19.7494 51.0441 20.0695H51.2727ZM52.5786 19.9735C52.7528 19.824 52.9269 19.696 53.1011 19.5893C53.2751 19.4827 53.4493 19.3546 53.6234 19.2052L53.3949 19.1092C53.199 19.2373 52.9922 19.3867 52.7746 19.5573C52.5786 19.7067 52.3937 19.8668 52.2195 20.0375L52.5786 19.9735ZM50.9136 8.64233C50.7612 8.79171 50.5979 8.93041 50.4238 9.05845C50.2497 9.18648 50.0973 9.33585 49.9667 9.50657L50.0647 9.53857H50.1952C50.3911 9.43188 50.5761 9.29317 50.7503 9.12246C50.9462 8.93041 51.1421 8.77036 51.338 8.64233H50.9136ZM52.5786 5.63349C52.7093 5.46279 52.8399 5.31341 52.9705 5.18537C53.1011 5.036 53.2534 4.90797 53.4275 4.80127L53.4928 4.67323L53.4602 4.70525C53.2425 4.87595 53.0248 5.04667 52.8072 5.21739C52.6113 5.38809 52.4263 5.56948 52.2522 5.76153H52.2848L52.5786 5.63349ZM50.8156 14.1478L51.0768 13.8918L50.8156 14.1158V14.1478ZM54.3091 19.4933L54.1785 19.5893L54.3091 19.5253V19.4933Z" fill="#E08D22"/>
    <path d="M56.1815 19.5253C56.1815 19.1625 56.2903 18.8638 56.508 18.6291C56.7474 18.373 57.0195 18.1916 57.3242 18.085C57.2371 16.8473 57.2263 15.5989 57.2916 14.3399C57.3787 13.0809 57.3569 11.8432 57.2263 10.6269C56.9215 10.4989 56.6603 10.3175 56.4427 10.0827C56.225 9.82666 56.1162 9.5279 56.1162 9.18648C56.1162 8.86639 56.2141 8.59966 56.41 8.38626C56.6059 8.15152 56.8344 7.97014 57.0957 7.8421C57.3787 7.71407 57.6833 7.61805 58.0099 7.55403C58.3364 7.49001 58.6302 7.458 58.8913 7.458C59.2179 7.458 59.6315 7.47934 60.1321 7.52202C60.6327 7.5647 61.1115 7.65005 61.5687 7.77809C62.0257 7.90612 62.4176 8.10885 62.744 8.38626C63.0923 8.64233 63.2665 8.99443 63.2665 9.44255C63.2665 9.78397 63.1576 10.0934 62.9399 10.3708C62.744 10.6269 62.4937 10.8296 62.1889 10.9789C62.1672 11.5764 62.1563 12.1739 62.1563 12.7714C62.1563 13.3476 62.1563 13.9344 62.1563 14.5319L62.1889 18.053C62.4937 18.1383 62.744 18.309 62.9399 18.565C63.1576 18.7998 63.2665 19.0772 63.2665 19.3973C63.2665 19.76 63.1249 20.0695 62.842 20.3255C62.559 20.5603 62.2107 20.7417 61.7972 20.8697C61.3836 21.019 60.9592 21.1152 60.5239 21.1578C60.0885 21.2218 59.7294 21.2538 59.4464 21.2538C59.1417 21.2538 58.8044 21.2325 58.4343 21.1898C58.0642 21.1685 57.7051 21.1044 57.3569 20.9977C57.0304 20.891 56.7474 20.7203 56.508 20.4855C56.2903 20.2509 56.1815 19.9308 56.1815 19.5253ZM59.7076 6.97787C59.3375 6.97787 59.0111 6.89251 58.7281 6.7218C58.4451 6.52975 58.2058 6.29502 58.0099 6.0176C57.8139 5.74019 57.6616 5.44144 57.5527 5.12136C57.444 4.77993 57.3895 4.44918 57.3895 4.12908C57.3895 3.51025 57.5745 2.92341 57.9445 2.3686C58.3146 1.81378 58.8152 1.45101 59.4464 1.28029L59.577 1.31231C59.7512 1.26963 59.8818 1.24829 59.9688 1.24829C60.3606 1.24829 60.7089 1.33364 61.0136 1.50436C61.3401 1.65373 61.6121 1.85646 61.8298 2.11253C62.0693 2.3686 62.2434 2.66734 62.3523 3.00878C62.4829 3.3502 62.5481 3.7023 62.5481 4.06507C62.5481 4.42783 62.4719 4.7906 62.3196 5.15337C62.1672 5.49479 61.9604 5.80421 61.6992 6.08163C61.4381 6.35903 61.1333 6.58309 60.785 6.75381C60.4586 6.90318 60.0995 6.97787 59.7076 6.97787ZM60.9483 15.0121C60.5565 15.3748 60.143 15.727 59.7076 16.0683C59.2941 16.4098 58.9023 16.7726 58.5322 17.1567V17.3488C58.9023 17.0286 59.2941 16.7193 59.7076 16.4205C60.1212 16.1004 60.5347 15.791 60.9483 15.4923V15.0121ZM61.0462 8.86639C60.611 9.18648 60.1756 9.51724 59.7403 9.85866C59.3049 10.1788 58.8913 10.5202 58.4996 10.8829V11.1711C59.0002 10.8082 59.4791 10.4349 59.9361 10.0507C60.415 9.66661 60.8939 9.29317 61.3728 8.93041L61.0462 8.86639ZM58.4996 15.3641C58.9349 15.0014 59.3375 14.6386 59.7076 14.2759C60.0995 13.9131 60.513 13.5717 60.9483 13.2516V13.0276C60.513 13.3263 60.0777 13.6357 59.6423 13.9558C59.207 14.2546 58.8261 14.6173 58.4996 15.0441V15.3641ZM58.5649 18.437C58.6084 18.373 58.7499 18.245 58.9893 18.053C59.2506 17.8608 59.5226 17.6581 59.8055 17.4448C60.0885 17.2313 60.3388 17.0393 60.5565 16.8686C60.796 16.6765 60.9374 16.5805 60.9809 16.5805V16.2605C60.5457 16.5165 60.1212 16.8153 59.7076 17.1567C59.2941 17.4768 58.9023 17.8075 58.5322 18.149L58.5649 18.437ZM58.5322 12.0993C59.12 11.6725 59.6858 11.2244 60.2301 10.7549C60.796 10.2854 61.3945 9.85866 62.0257 9.47456L61.9604 9.2825C61.6557 9.45322 61.3618 9.66661 61.0789 9.92268C60.796 10.1788 60.513 10.4349 60.2301 10.6909C59.9471 10.9469 59.6641 11.1924 59.3811 11.4271C59.0982 11.6618 58.8152 11.8432 58.5322 11.9712V12.0993ZM57.9445 19.9415C58.3799 19.5147 58.8587 19.1199 59.3811 18.7571C59.9035 18.373 60.4259 18.0103 60.9483 17.6688V17.3808C60.7306 17.5515 60.4804 17.7542 60.1974 17.989C59.9361 18.2236 59.6641 18.4583 59.3811 18.6931C59.0982 18.9278 58.8152 19.1519 58.5322 19.3653C58.2493 19.5573 57.9881 19.7174 57.7486 19.8454L57.9445 19.9415ZM60.9483 10.9469C60.5347 11.2671 60.1103 11.5978 59.675 11.9392C59.2614 12.2593 58.8805 12.6114 58.5322 12.9956V13.2196C58.9458 12.9422 59.3485 12.6114 59.7403 12.2273C60.1538 11.8432 60.5565 11.4911 60.9483 11.1711V10.9469ZM61.2095 3.4889C60.8395 3.80899 60.4804 4.12908 60.1321 4.44918C59.8055 4.76926 59.4791 5.11069 59.1526 5.47346L59.2506 5.56948C59.5552 5.24939 59.8926 4.96132 60.2627 4.70525C60.6545 4.42783 61.0027 4.12908 61.3075 3.80899L61.2095 3.4889ZM58.6628 4.03306C58.9458 3.75565 59.2288 3.49958 59.5117 3.26485C59.8165 3.03011 60.0885 2.76338 60.328 2.46462L60.1648 2.43262L59.8382 2.52864C59.6641 2.69936 59.4791 2.88074 59.2832 3.0728C59.109 3.24351 58.9349 3.41422 58.7608 3.58493C58.7608 3.60627 58.7499 3.64895 58.7281 3.71297C58.7063 3.75565 58.6846 3.75565 58.6628 3.71297V4.03306ZM59.9035 8.73836C59.6641 8.93041 59.4138 9.13313 59.1526 9.34652C58.8914 9.53857 58.6302 9.71996 58.369 9.89067L58.4343 10.1147C58.7173 9.88001 58.9893 9.65594 59.2506 9.44255C59.5335 9.22915 59.8273 9.0051 60.1321 8.77036L59.9035 8.73836ZM60.8177 2.81673C60.4694 3.13681 60.1212 3.4569 59.7729 3.77699C59.4246 4.09707 59.0873 4.4385 58.7608 4.80127L58.8261 4.96132C59.1526 4.59855 59.4899 4.25712 59.8382 3.93704C60.1865 3.5956 60.5457 3.27552 60.9156 2.97676L60.8177 2.81673ZM60.9483 14.0198C60.513 14.3399 60.0885 14.692 59.675 15.0761C59.2832 15.4603 58.9023 15.8336 58.5322 16.1964V16.3245C58.9023 15.9403 59.2941 15.5883 59.7076 15.2681C60.1212 14.9268 60.513 14.5746 60.883 14.2119L60.9483 14.1478V14.0198ZM60.9156 11.9712C60.5457 12.2699 60.1865 12.5794 59.8382 12.8995C59.4899 13.1983 59.1417 13.5183 58.7934 13.8598C59.12 13.5611 59.4573 13.2836 59.8055 13.0276C60.1756 12.7714 60.5457 12.5154 60.9156 12.2593V11.9712ZM58.9566 20.0695C59.5444 19.4507 60.1974 18.9278 60.9156 18.501L60.9483 18.437V18.373C60.5565 18.6291 60.1756 18.8958 59.8055 19.1732C59.4356 19.4507 59.0764 19.7494 58.7281 20.0695H58.9566ZM60.2627 19.9735C60.4368 19.824 60.611 19.696 60.785 19.5893C60.9592 19.4827 61.1333 19.3546 61.3075 19.2052L61.0789 19.1092C60.883 19.2373 60.6763 19.3867 60.4586 19.5573C60.2627 19.7067 60.0777 19.8668 59.9035 20.0375L60.2627 19.9735ZM58.5975 8.64233C58.4451 8.79171 58.2819 8.93041 58.1078 9.05845C57.9337 9.18648 57.7813 9.33585 57.6507 9.50657L57.7486 9.53857H57.8792C58.0752 9.43188 58.2601 9.29317 58.4343 9.12246C58.6302 8.93041 58.8261 8.77036 59.0219 8.64233H58.5975ZM60.2627 5.63349C60.3933 5.46279 60.5239 5.31341 60.6545 5.18537C60.785 5.036 60.9374 4.90797 61.1115 4.80127L61.1769 4.67323L61.1443 4.70525C60.9266 4.87595 60.7089 5.04667 60.4912 5.21739C60.2953 5.38809 60.1103 5.56948 59.9361 5.76153H59.9688L60.2627 5.63349ZM58.4996 14.1478L58.7608 13.8918L58.4996 14.1158V14.1478ZM61.9931 19.4933L61.8625 19.5893L61.9931 19.5253V19.4933Z" fill="#E08D22"/>
    <path d="M71.7729 6.68984C72.034 6.68984 72.2409 6.75386 72.3932 6.8819C72.5673 6.9886 72.6979 7.13797 72.785 7.33002C72.8938 7.50074 72.9591 7.69279 72.9809 7.90618C73.0244 8.11958 73.0462 8.33296 73.0462 8.54636C73.0462 8.97314 72.9591 9.31457 72.785 9.57064C72.6326 9.82671 72.415 10.0294 72.132 10.1788C71.8708 10.3282 71.566 10.4349 71.2178 10.4989C70.8913 10.5629 70.5539 10.6269 70.2056 10.691C70.2274 11.1178 70.2166 11.5338 70.173 11.9393C70.1513 12.3234 70.1404 12.7288 70.1404 13.1556C70.1404 13.9025 70.1622 14.66 70.2056 15.4282C70.2492 16.1752 70.2709 16.922 70.2709 17.6689C70.4233 17.5409 70.5865 17.4235 70.7607 17.3167C70.9348 17.2101 71.1198 17.1567 71.3157 17.1567C71.664 17.1567 71.9361 17.3061 72.132 17.6049C72.3497 17.9036 72.4584 18.2024 72.4584 18.5011C72.4584 18.8639 72.3605 19.2267 72.1646 19.5894C71.9905 19.9522 71.7511 20.2829 71.4464 20.5817C71.1416 20.8591 70.8042 21.0831 70.4343 21.2539C70.0642 21.4459 69.6942 21.5419 69.3242 21.5419C68.214 21.5419 67.3761 21.2326 66.8101 20.6137C66.2442 19.9949 65.8306 19.2374 65.5695 18.3411C65.33 17.4448 65.1994 16.5059 65.1777 15.5243C65.1559 14.5427 65.1451 13.6891 65.1451 12.9636C65.1451 12.5581 65.1451 12.1527 65.1451 11.7473C65.1451 11.3205 65.1668 10.915 65.2104 10.5309C64.775 10.4456 64.4485 10.2535 64.2309 9.95475C64.0132 9.63466 63.9043 9.26122 63.9043 8.83444C63.9043 8.45033 64.0349 8.10891 64.2962 7.81016C64.5355 7.5114 64.8511 7.30868 65.243 7.20198L65.2756 3.32892C64.9927 3.2649 64.7315 3.13687 64.492 2.94482C64.2309 2.75276 64.1003 2.50736 64.1003 2.20861C64.1003 1.8245 64.307 1.49375 64.7206 1.21633C65.1559 0.938927 65.6566 0.714865 66.2225 0.544151C66.7883 0.352097 67.3543 0.213392 67.9202 0.128036C68.4861 0.0426785 68.9105 0 69.1935 0C69.6289 0 69.9989 0.128036 70.3036 0.384107C70.6301 0.640178 70.7934 0.992274 70.7934 1.4404C70.7934 1.95254 70.6192 2.43268 70.2709 2.8808C70.2927 2.98749 70.2819 3.09419 70.2383 3.20089C70.2166 3.28624 70.2056 3.38227 70.2056 3.48896L70.2383 7.39404H70.4996C70.6954 7.22333 70.8805 7.06328 71.0545 6.91391C71.2504 6.76453 71.4899 6.68984 71.7729 6.68984ZM66.5816 17.6369C66.9734 17.3808 67.3979 17.0714 67.8549 16.7087C68.3121 16.3459 68.7038 15.983 69.0303 15.6203V15.0122C68.595 15.3749 68.1597 15.727 67.7243 16.0684C67.3108 16.3885 66.9081 16.762 66.5163 17.1887L66.549 17.2527L66.5816 17.6369ZM69.3242 1.24835C68.8236 1.65379 68.3338 2.06991 67.8549 2.49669C67.3979 2.90213 66.9407 3.32892 66.4837 3.77704V4.22517C66.636 4.03311 66.8428 3.81973 67.1039 3.58499C67.3652 3.32892 67.6372 3.07285 67.9202 2.81678C68.225 2.56071 68.5188 2.32598 68.8018 2.11259C69.1065 1.87785 69.3677 1.70714 69.5854 1.60044V1.34437L69.3568 1.24835H69.3242ZM69.0303 5.98565C68.8562 6.09235 68.5623 6.30574 68.1487 6.62583C67.7352 6.94591 67.3108 7.29802 66.8754 7.68212C66.4619 8.04489 66.081 8.37565 65.7327 8.6744C65.4062 8.97314 65.243 9.15452 65.243 9.21854C65.243 9.28256 65.2756 9.31457 65.3409 9.31457C65.9722 8.82377 66.5816 8.31163 67.1692 7.77814C67.7788 7.24467 68.399 6.72186 69.0303 6.20972V5.98565ZM69.0956 2.68875C68.7256 3.11553 68.2903 3.51031 67.7896 3.87307C67.3108 4.23583 66.8646 4.61994 66.451 5.02539V5.40949C66.821 5.04673 67.2237 4.68396 67.659 4.3212C68.0944 3.95843 68.5406 3.62767 68.9976 3.32892L69.0956 2.68875ZM69.618 8.77042L69.5201 8.73842C68.9758 9.16519 68.4317 9.62399 67.8876 10.1148C67.3652 10.5843 66.8536 11.0644 66.3531 11.5552V11.8433C66.8972 11.3098 67.4522 10.7976 68.0181 10.3068C68.6059 9.81604 69.1827 9.29323 69.7486 8.73842L69.618 8.77042ZM68.965 12.5795C68.5514 13.0063 68.1161 13.401 67.659 13.7638C67.2237 14.1265 66.7993 14.5213 66.3857 14.9482C66.3857 15.0122 66.3857 15.0762 66.3857 15.1402C66.4074 15.2042 66.4184 15.2682 66.4184 15.3322C66.8319 14.9268 67.2455 14.532 67.659 14.1479C68.0944 13.7425 68.5296 13.3583 68.965 12.9956V12.5795ZM66.3531 14.1479C66.549 14.0412 66.7557 13.8812 66.9734 13.6678C67.2128 13.4543 67.4413 13.2303 67.659 12.9956C67.8985 12.7608 68.127 12.5261 68.3447 12.2913C68.5841 12.0566 68.8126 11.8646 69.0303 11.7153V11.3311C68.595 11.7366 68.127 12.1527 67.6264 12.5795C67.1257 12.985 66.7013 13.433 66.3531 13.9238V14.1479ZM66.451 16.3885C66.821 16.0257 67.2563 15.6737 67.757 15.3322C68.2576 14.9908 68.6603 14.628 68.965 14.244V13.7958C68.5296 14.1799 68.0944 14.564 67.659 14.9482C67.2237 15.3322 66.821 15.7377 66.451 16.1645V16.3885ZM69.0303 6.97793C68.7038 7.36203 68.2576 7.76747 67.6917 8.19426C67.1257 8.5997 66.6577 8.98382 66.2878 9.34658L66.3857 9.50663C66.8211 9.14386 67.2455 8.77042 67.659 8.38631C68.0944 8.00221 68.5514 7.66079 69.0303 7.36203V6.97793ZM66.8428 18.5972C67.1475 18.2557 67.5066 17.9462 67.9202 17.6689C68.3338 17.3702 68.7147 17.0714 69.0629 16.7727V16.4205C68.693 16.7407 68.3011 17.05 67.8876 17.3488C67.4958 17.6475 67.1149 17.9676 66.7448 18.309L66.8428 18.5972ZM66.3857 10.659C66.8211 10.2748 67.2781 9.9014 67.757 9.53863C68.2358 9.15452 68.6712 8.74908 69.0629 8.3223C69.0412 8.27962 69.0303 8.20493 69.0303 8.09823C68.5732 8.43966 68.127 8.79177 67.6917 9.15452C67.2563 9.51729 66.8211 9.88006 66.3857 10.2428V10.659ZM68.965 10.3389C68.5296 10.7443 68.0834 11.1284 67.6264 11.4911C67.191 11.854 66.7557 12.2487 66.3204 12.6755V12.9956C66.7122 12.5688 67.1692 12.1633 67.6917 11.7793C68.2358 11.3951 68.6603 10.9683 68.965 10.4989V10.3389ZM66.4184 7.29802L66.5163 7.20198C66.8864 6.83923 67.2781 6.49779 67.6917 6.17771C68.127 5.83628 68.5732 5.53753 69.0303 5.28146V4.96137C68.5514 5.28146 68.0944 5.63355 67.659 6.01766C67.2455 6.40177 66.8319 6.79654 66.4184 7.20198V7.29802ZM67.2999 19.2374C67.6046 19.0026 67.8985 18.7679 68.1814 18.5331C68.4643 18.277 68.7583 18.021 69.0629 17.7649V17.5409C68.9976 17.6049 68.867 17.7222 68.6712 17.8929C68.4753 18.0424 68.2685 18.213 68.0508 18.4051C67.8331 18.5757 67.6372 18.7359 67.4632 18.8852C67.289 19.0346 67.191 19.1092 67.1692 19.1092L67.2999 19.2374ZM68.1487 1.40839C68.0834 1.45107 68.0073 1.48308 67.9202 1.50442C67.8331 1.52575 67.7461 1.5471 67.659 1.56843L66.451 2.72075C66.451 2.76343 66.451 2.79543 66.451 2.81678C66.4727 2.83812 66.4837 2.87013 66.4837 2.9128C66.7448 2.6354 67.0169 2.37933 67.2999 2.14459C67.5829 1.88852 67.8658 1.64312 68.1487 1.40839ZM66.451 6.36976C66.8428 5.98565 67.2455 5.61222 67.659 5.24945C68.0726 4.86534 68.5296 4.53459 69.0303 4.25718V4.06513C68.5732 4.40655 68.1161 4.75864 67.659 5.12141C67.2237 5.48418 66.821 5.87895 66.451 6.30574V6.36976ZM71.7402 7.90618C71.6313 8.01288 71.5117 8.11958 71.381 8.22628C71.2722 8.33296 71.1416 8.41833 70.9893 8.48235C70.8152 8.6744 70.6192 8.85578 70.4016 9.02649C70.1839 9.17587 69.988 9.34658 69.8139 9.53863L70.1404 9.44261C70.4233 9.18654 70.6845 8.93047 70.924 8.6744C71.1851 8.41833 71.4681 8.17293 71.7729 7.93819L71.7402 7.90618ZM69.3242 20.3256C69.5418 20.1549 69.7378 19.9522 69.9118 19.7174C70.086 19.4827 70.2819 19.28 70.4996 19.1092H70.4669C70.2274 19.28 69.988 19.4614 69.7486 19.6534C69.5309 19.8454 69.3242 20.0589 69.1282 20.2936L69.3242 20.3256ZM68.4753 20.1336C68.6494 19.9202 68.8235 19.7281 68.9976 19.5574C69.1935 19.3654 69.3895 19.1839 69.5854 19.0132L69.5527 18.9812C69.335 19.1519 69.1282 19.3334 68.9323 19.5254C68.7365 19.6961 68.5514 19.8775 68.3774 20.0696L68.4753 20.1336ZM67.8549 19.7494C68.0726 19.5147 68.2903 19.3014 68.5079 19.1092C68.7256 18.8959 68.9541 18.6932 69.1935 18.5011H69.1609C68.9215 18.6719 68.682 18.8532 68.4426 19.0452C68.225 19.2374 67.9964 19.44 67.757 19.6534L67.8549 19.7494ZM71.2504 9.25056C71.4028 9.20787 71.5334 9.15452 71.6423 9.09051C71.7511 9.00515 71.8164 8.87712 71.8382 8.7064L71.2504 9.25056ZM66.3531 1.8245L65.9939 2.20861L66.0918 2.24062L66.549 1.79249L66.3531 1.8245ZM71.2504 18.6292L71.2831 18.5011C71.1961 18.5224 71.1198 18.5651 71.0545 18.6292C70.9893 18.6932 70.9348 18.7465 70.8913 18.7892L71.2504 18.6292ZM70.6954 18.9172V18.9492L70.8913 18.7892L70.6954 18.9172Z" fill="#E08D22"/>
    <path d="M79.4235 21.4139C78.4222 21.4139 77.508 21.2325 76.6809 20.8697C75.8538 20.507 75.1355 20.0055 74.5261 19.3653C73.9384 18.7252 73.4813 17.989 73.1548 17.1567C72.8284 16.3032 72.665 15.3962 72.665 14.436C72.665 13.4543 72.8066 12.4941 73.0895 11.5551C73.3942 10.6163 73.8296 9.77334 74.3955 9.02647C74.9614 8.27959 75.658 7.6821 76.4851 7.23398C77.334 6.76451 78.3135 6.52979 79.4235 6.52979C80.4683 6.52979 81.3716 6.73251 82.1334 7.13795C82.917 7.52205 83.57 8.04487 84.0924 8.70638C84.6148 9.34656 84.9957 10.1041 85.2351 10.979C85.4964 11.8326 85.6269 12.7288 85.6269 13.6678C85.6269 14.6707 85.5181 15.6416 85.3004 16.5805C85.0827 17.4982 84.7236 18.3197 84.223 19.0452C83.7441 19.7494 83.1129 20.3256 82.3294 20.7737C81.5457 21.2005 80.5771 21.4139 79.4235 21.4139ZM79.8153 9.37857C79.467 9.44259 79.195 9.70932 78.999 10.1788C78.825 10.6483 78.6944 11.1818 78.6073 11.7793C78.5202 12.3768 78.4657 12.9636 78.444 13.5397C78.444 14.1158 78.444 14.5427 78.444 14.8201C78.444 15.4816 78.4767 16.1538 78.542 16.8367C78.6291 17.4982 78.8902 18.1063 79.3256 18.6612L79.5215 18.533C79.7608 17.9569 79.9242 17.3702 80.0112 16.7726C80.1201 16.1751 80.1853 15.567 80.2071 14.9481C80.2506 14.3293 80.2615 13.7105 80.2398 13.0916C80.218 12.4728 80.2071 11.8539 80.2071 11.2351C80.2071 11.0003 80.1854 10.6803 80.1418 10.2748C80.0983 9.84803 79.9895 9.54928 79.8153 9.37857ZM79.293 7.74612C78.9664 8.00219 78.5528 8.34361 78.0522 8.7704C77.5516 9.17585 77.051 9.6133 76.5504 10.0828C76.0497 10.5309 75.5709 10.979 75.1138 11.4271C74.6567 11.8539 74.3194 12.2273 74.1017 12.5475L74.069 12.7715C74.7656 12.174 75.4403 11.5658 76.0933 10.947C76.7462 10.3282 77.4319 9.74134 78.1502 9.18652C78.3243 8.93045 78.4985 8.72772 78.6726 8.57835C78.8684 8.42897 79.1079 8.30094 79.3909 8.19424C79.5433 8.04487 79.7174 7.90616 79.9132 7.77812L79.293 7.74612ZM74.167 16.3245C74.254 16.2178 74.4608 16.0257 74.7873 15.7483C75.1355 15.4496 75.4838 15.1402 75.832 14.8201C76.2021 14.5 76.5286 14.2226 76.8115 13.9878C77.0945 13.7318 77.2469 13.5824 77.2687 13.5397V13.1236C76.7027 13.5503 76.1368 13.9985 75.5709 14.468C75.0049 14.9161 74.5043 15.4175 74.069 15.9724L74.167 16.3245ZM84.223 11.8113C83.7659 12.174 83.2871 12.5261 82.7864 12.8675C82.3076 13.1876 81.8504 13.5611 81.4152 13.9878V14.308C81.8504 13.9665 82.3184 13.6251 82.8191 13.2836C83.3197 12.9423 83.8203 12.6541 84.3209 12.4194C84.2992 12.3128 84.2882 12.1633 84.2882 11.9713L84.223 11.8113ZM83.9618 16.0364C84.0706 15.8657 84.125 15.6843 84.125 15.4923C83.6244 15.727 83.1347 15.9937 82.6558 16.2925C82.1987 16.5699 81.7416 16.8687 81.2845 17.1887L81.2193 17.5728C81.6545 17.274 82.1007 17.018 82.5579 16.8047C83.0367 16.5699 83.5047 16.3138 83.9618 16.0364ZM73.9384 15.1722C74.4173 14.6173 74.9505 14.1158 75.5382 13.6678C76.1477 13.1983 76.7354 12.7501 77.3013 12.3234L77.3666 11.8113C76.7572 12.3021 76.1694 12.8035 75.6035 13.3156C75.0594 13.8278 74.5043 14.3506 73.9384 14.8841V15.1722ZM80.7295 18.9492C81.1212 18.6505 81.5892 18.3624 82.1334 18.085C82.6776 17.8075 83.1782 17.5942 83.6353 17.4448C83.6788 17.338 83.7006 17.2314 83.7006 17.1247C83.7223 17.018 83.7549 16.9113 83.7985 16.8047C83.5809 16.9113 83.3197 17.05 83.0149 17.2207C82.7103 17.3702 82.4055 17.5408 82.1007 17.7329C81.7961 17.9035 81.5131 18.0957 81.2518 18.309C81.0125 18.5224 80.8383 18.7358 80.7295 18.9492ZM83.9291 10.7549L81.4152 12.8035V13.1556C81.8504 12.7928 82.2858 12.4514 82.7211 12.1313C83.1782 11.8113 83.6353 11.4911 84.0924 11.1711L83.9291 10.7549ZM84.3862 13.0916C83.8856 13.3903 83.374 13.7105 82.8517 14.0518C82.3294 14.372 81.8504 14.724 81.4152 15.1082V15.3642C81.9375 15.0868 82.4381 14.7773 82.917 14.436C83.4176 14.0732 83.9073 13.7318 84.3862 13.4117V13.0916ZM73.9384 14.0518C74.439 13.4757 75.0049 12.9102 75.6362 12.3554C76.2674 11.8006 76.8986 11.3098 77.5298 10.883C77.5516 10.7976 77.5625 10.7123 77.5625 10.6269C77.5625 10.5416 77.5843 10.4562 77.6278 10.3708C77.0402 10.9256 76.398 11.4805 75.7014 12.0353C75.0267 12.5901 74.439 13.177 73.9384 13.7958V14.0518ZM74.4934 17.1887C74.9288 16.826 75.3858 16.4525 75.8647 16.0684C76.3436 15.663 76.7789 15.2468 77.1707 14.8201V14.436C76.7354 14.8201 76.2565 15.2255 75.7341 15.6523C75.2336 16.0791 74.7872 16.5058 74.3955 16.9327L74.4934 17.1887ZM84.2882 14.692C84.2882 14.6493 84.2882 14.564 84.2882 14.436C84.31 14.308 84.3427 14.2226 84.3862 14.1798C83.8856 14.4786 83.3632 14.7987 82.8191 15.1402C82.2966 15.4603 81.8178 15.8017 81.3825 16.1645V16.3565C81.8178 16.0791 82.3076 15.8123 82.8517 15.5563C83.4176 15.2788 83.8965 14.9908 84.2882 14.692ZM74.9832 17.989C75.3097 17.6262 75.6688 17.2847 76.0607 16.9647C76.4742 16.6445 76.8768 16.3352 77.2687 16.0364L77.2034 15.6523C76.8115 16.015 76.4089 16.3565 75.9954 16.6765C75.5818 16.9967 75.19 17.3488 74.8199 17.7329L74.9832 17.989ZM82.917 18.7892C82.9823 18.7038 83.0367 18.6185 83.0802 18.533C83.1455 18.4477 83.2108 18.3517 83.2761 18.245C82.7103 18.5224 82.177 18.8105 81.6763 19.1092C81.1757 19.408 80.675 19.7387 80.1744 20.1015L80.5336 20.0375C80.9036 19.8027 81.2845 19.5787 81.6763 19.3653C82.0899 19.1519 82.5034 18.9599 82.917 18.7892ZM78.0195 7.90616C77.8237 8.14089 77.5516 8.39696 77.2034 8.67438C76.8551 8.93045 76.4959 9.20785 76.126 9.5066C75.7559 9.78401 75.4185 10.0828 75.1138 10.4029C74.809 10.7016 74.6022 10.9896 74.4934 11.2671V11.3311C75.1465 10.8189 75.7559 10.2535 76.3218 9.63464C76.9095 9.0158 77.5298 8.42897 78.1829 7.87415L78.0195 7.90616ZM83.5374 9.95473C83.1455 10.2108 82.7756 10.4882 82.4273 10.7869C82.079 11.0857 81.7525 11.4058 81.4478 11.7473V11.9713C81.7961 11.6726 82.177 11.3844 82.5905 11.1071C83.0041 10.8083 83.3632 10.4989 83.668 10.1788L83.5374 9.95473ZM75.5709 18.6292C75.832 18.3304 76.115 18.053 76.4198 17.7969C76.7462 17.5195 77.0618 17.2634 77.3666 17.0287L77.334 16.7726C76.9857 17.0287 76.6483 17.306 76.3218 17.6048C75.9954 17.8822 75.6798 18.1703 75.375 18.469L75.5709 18.6292ZM83.0476 9.34655C82.7646 9.53861 82.4816 9.73066 82.1987 9.92271C81.9375 10.1148 81.6763 10.3175 81.4152 10.5309C81.4369 10.5736 81.4478 10.6696 81.4478 10.8189C81.9701 10.3495 82.5361 9.89071 83.1455 9.44259L83.0476 9.34655ZM82.3947 8.80241C82.2205 8.95178 82.0354 9.09048 81.8396 9.21852C81.6437 9.32522 81.4587 9.44259 81.2845 9.57062L81.3499 9.82669C81.5458 9.65597 81.7416 9.5066 81.9375 9.37857C82.1552 9.25053 82.362 9.10115 82.5579 8.93045L82.3947 8.80241ZM76.8442 19.5574C76.9966 19.3867 77.1489 19.2373 77.3013 19.1092C77.4754 18.9599 77.6496 18.8105 77.8237 18.6612L77.7257 18.469C77.6822 18.5117 77.606 18.5864 77.4972 18.6932C77.3884 18.7999 77.2795 18.9172 77.1707 19.0452C77.0618 19.1519 76.9531 19.2587 76.8442 19.3653C76.7572 19.4507 76.7136 19.4934 76.7136 19.4934L76.8442 19.5574ZM81.056 8.96245C81.1865 8.85575 81.3172 8.75973 81.4478 8.67438C81.5784 8.58901 81.7198 8.50366 81.8722 8.41831L81.5784 8.22625L80.958 8.80241L81.056 8.96245ZM76.126 19.1412C76.3653 18.9492 76.583 18.7358 76.7789 18.501C76.9966 18.245 77.2469 18.0317 77.5298 17.8609L77.4972 17.7329C77.2577 17.9462 76.9966 18.1703 76.7136 18.405C76.4524 18.6185 76.2239 18.8425 76.028 19.0772L76.126 19.1412ZM78.8684 20.1975L79.3582 19.9095C79.293 19.9309 79.1841 19.9309 79.0317 19.9095C78.9011 19.8668 78.8141 19.8241 78.7705 19.7814L78.3461 20.1335L78.8684 20.1975ZM77.6278 19.9095C77.7367 19.8027 77.8455 19.7174 77.9542 19.6534C78.0848 19.5894 78.1937 19.504 78.2808 19.3974L78.1502 19.2373C77.8673 19.4507 77.6386 19.6534 77.4646 19.8454L77.6278 19.9095ZM80.7295 7.90616L80.2724 8.25826L80.4683 8.35429L80.9254 7.97018L80.7295 7.90616Z" fill="#E08D22"/>
    <path d="M92.2984 12.4835C92.2332 12.6329 92.1679 12.8676 92.1026 13.1877C92.0591 13.4864 92.0156 13.8065 91.972 14.1479C91.9502 14.4894 91.9285 14.8202 91.9067 15.1402C91.8849 15.4604 91.874 15.7057 91.874 15.8764V18.1171C92.2005 18.2024 92.4944 18.3518 92.7556 18.5651C93.0386 18.7786 93.18 19.0666 93.18 19.4294C93.18 19.8561 93.0277 20.1869 92.7229 20.4216C92.4182 20.6351 92.0482 20.7951 91.6129 20.9018C91.1775 21.0085 90.7313 21.0725 90.2743 21.0938C89.8171 21.1153 89.4472 21.1259 89.1642 21.1259C88.9029 21.1259 88.5873 21.1153 88.2173 21.0938C87.8473 21.0938 87.4882 21.0511 87.1399 20.9658C86.8134 20.8805 86.5304 20.7418 86.291 20.5498C86.0515 20.3576 85.9318 20.0803 85.9318 19.7175C85.9318 19.3974 86.0298 19.12 86.2257 18.8853C86.4216 18.6506 86.6719 18.4798 86.9767 18.3731C86.9767 16.9647 86.9549 15.5777 86.9113 14.212C86.8896 12.8462 86.8351 11.4592 86.7481 10.0508C86.3998 9.94412 86.0733 9.77341 85.7686 9.53867C85.4639 9.30395 85.3115 8.97318 85.3115 8.54641C85.3115 8.09827 85.4856 7.75685 85.8339 7.52212C86.2039 7.26605 86.6393 7.08466 87.1399 6.97797C87.6623 6.87127 88.1847 6.80726 88.707 6.78592C89.2295 6.76457 89.6539 6.75391 89.9803 6.75391C90.5463 6.75391 90.9925 6.90329 91.3191 7.20203C91.6455 7.50078 91.8632 7.9169 91.972 8.45038C92.2984 8.02359 92.6685 7.66083 93.0821 7.36208C93.5174 7.06333 94.0181 6.91396 94.584 6.91396C95.3675 6.91396 95.9661 7.20203 96.3796 7.77819C96.7932 8.33301 97 8.96252 97 9.66671C97 9.90144 96.9674 10.1789 96.9021 10.499C96.8368 10.7977 96.7279 11.0858 96.5756 11.3632C96.4232 11.6192 96.2382 11.8433 96.0205 12.0354C95.8028 12.206 95.5417 12.2914 95.2369 12.2914C95.0628 12.2914 94.8996 12.2594 94.7472 12.1954C94.5948 12.11 94.4425 12.0247 94.2901 11.9393C94.1378 11.854 93.9963 11.7793 93.8657 11.7153C93.7569 11.6299 93.6698 11.5872 93.6045 11.5872C93.2997 11.5872 93.0494 11.7047 92.8535 11.9393C92.6795 12.1527 92.4944 12.3342 92.2984 12.4835ZM88.1847 18.6932C88.62 18.3304 89.0445 17.9677 89.458 17.6049C89.8716 17.2208 90.2743 16.8367 90.666 16.4526V15.9724C90.2307 16.3352 89.7953 16.6979 89.3601 17.0607C88.9465 17.4022 88.5547 17.7863 88.1847 18.2131V18.6932ZM94.5513 8.16229C94.0289 8.58908 93.5283 9.09055 93.0494 9.66671C92.5924 10.2429 92.1462 10.7763 91.7108 11.2672L91.8087 11.2352C92.3747 10.7443 92.9188 10.2429 93.4413 9.73073C93.9636 9.21859 94.5077 8.71711 95.0737 8.22632L94.5513 8.16229ZM88.1194 13.9879C88.6418 13.4544 89.1642 12.9102 89.6865 12.3555C90.2307 11.8007 90.7858 11.2672 91.3517 10.755C91.3081 10.7337 91.2755 10.7123 91.2538 10.691C91.232 10.6697 91.1993 10.659 91.1557 10.659C90.5899 11.1498 90.0566 11.662 89.5559 12.1954C89.0771 12.7075 88.5983 13.241 88.1194 13.7959V13.9879ZM90.8293 8.80248C90.3286 9.1439 89.8389 9.54934 89.3601 10.0188C88.8812 10.467 88.4459 10.915 88.0541 11.3632V11.7473C88.4894 11.2778 88.9574 10.8297 89.458 10.403C89.9803 9.95479 90.4483 9.496 90.8619 9.02653L90.8293 8.80248ZM91.1557 12.0994C91.1775 12.014 91.232 11.886 91.3191 11.7153V11.6833C90.8184 12.2167 90.2851 12.7395 89.7192 13.2517C89.1532 13.7425 88.6309 14.2654 88.1521 14.8202V15.2362L91.1557 12.0994ZM90.7313 14.5C90.3178 14.9482 89.9042 15.4069 89.4907 15.8764C89.0988 16.3459 88.6636 16.7727 88.1847 17.1568V17.3489C88.5765 16.9647 89.0118 16.6019 89.4907 16.2606C89.9913 15.8977 90.3939 15.503 90.6987 15.0762L90.7313 14.6601V14.5ZM88.1194 12.8996C88.5547 12.4088 89.0009 11.9287 89.458 11.4592C89.9151 10.9684 90.3939 10.5096 90.8945 10.0828V9.82676C90.3939 10.2749 89.9151 10.7337 89.458 11.2032C89.0009 11.6512 88.5438 12.1207 88.0867 12.6115L88.1194 12.8996ZM90.8945 13.2197C90.8075 13.3264 90.6116 13.5291 90.3069 13.8279C90.0239 14.1266 89.7192 14.4467 89.3927 14.7881C89.0879 15.1082 88.805 15.4069 88.5438 15.6844C88.3043 15.9617 88.1847 16.1219 88.1847 16.1645V16.3566L88.2173 16.2926C88.7179 15.8871 89.1532 15.4283 89.5233 14.9162C89.9151 14.404 90.3613 13.9452 90.8619 13.5397L90.8945 13.2197ZM88.1521 19.8776C88.5656 19.4721 88.9682 19.0879 89.3601 18.7252C89.7736 18.3411 90.2198 17.9784 90.6987 17.6369C90.6987 17.5729 90.6878 17.5089 90.666 17.4449C90.666 17.3809 90.666 17.3274 90.666 17.2848C90.209 17.7116 89.741 18.1491 89.2621 18.5972C88.805 19.0239 88.3261 19.4294 87.8255 19.8135L88.1521 19.8776ZM95.5308 8.64243C95.2261 8.91984 94.9213 9.20792 94.6166 9.50667C94.3337 9.78408 94.0397 10.0722 93.7351 10.3709C93.7786 10.3709 93.833 10.3709 93.8983 10.3709C93.9854 10.3709 94.0507 10.3922 94.0942 10.435L95.6288 8.8985L95.5308 8.64243ZM89.2621 8.03426C88.7179 8.39703 88.239 8.81314 87.8255 9.2826L87.8581 9.31462L87.9234 9.50667C88.2282 9.2506 88.522 9.0052 88.805 8.77046C89.1097 8.51439 89.4144 8.25832 89.7192 8.00225L89.2621 8.03426ZM95.792 9.60269C95.5961 9.79474 95.4001 9.9868 95.2043 10.1789C95.0302 10.3709 94.8452 10.5523 94.6493 10.723C94.7146 10.8083 94.8017 10.8617 94.9104 10.883C95.041 10.7337 95.1716 10.6057 95.3022 10.499C95.4546 10.3709 95.607 10.2429 95.7594 10.1148L95.792 9.60269ZM90.5028 8.09827C90.111 8.48239 89.6865 8.84515 89.2295 9.18658C88.7941 9.528 88.3806 9.90144 87.9887 10.3069V10.531C88.4024 10.1255 88.8159 9.72006 89.2295 9.31462C89.6647 8.90917 90.1219 8.54641 90.6007 8.22632L90.5028 8.09827ZM89.2621 19.9096C89.5015 19.6961 89.741 19.4828 89.9803 19.2694C90.2198 19.0559 90.4592 18.8426 90.6987 18.6292V18.4051C90.0674 18.8959 89.4907 19.3974 88.9682 19.9096H89.2621ZM90.764 19.8135C90.9381 19.6428 91.1231 19.4934 91.3191 19.3654L91.2864 19.3334L90.9272 19.2053C90.7966 19.3121 90.666 19.4188 90.5354 19.5254C90.4266 19.6321 90.3178 19.7495 90.209 19.8776L90.764 19.8135ZM87.7276 8.16229C87.6188 8.26899 87.499 8.38636 87.3684 8.51439C87.2379 8.62109 87.1181 8.73846 87.0092 8.86649L87.3032 8.93051H87.3358C87.5317 8.67444 87.7928 8.40769 88.1194 8.13029L87.7276 8.16229Z" fill="#E08D22"/>
  </g>
  <defs>
    <clipPath id="clip0_113_949">
      <rect width="97" height="29" fill="white"/>
    </clipPath>
  </defs>
</svg>